<?xml version="1.0" encoding="UTF-8"?>
<svg version="1.1" xmlns="http://www.w3.org/2000/svg" width="60" height="20">
<path d="M0 0 C19.8 0 39.6 0 60 0 C60 6.6 60 13.2 60 20 C40.2 20 20.4 20 0 20 C0 13.4 0 6.8 0 0 Z " fill="#0E0E0E" transform="translate(0,0)"/>
<path d="M0 0 C2.3125 1.0625 2.3125 1.0625 4 2 C4.42751439 7.21567553 4.42751439 7.21567553 4 10 C1.9375 12.0625 1.9375 12.0625 -1 13 C-5.23065693 12.78117292 -7.45829418 12.36113721 -11 10 C-11.40843923 7.28796348 -11.13336867 4.7562858 -11 2 C-6.8896419 -0.38974308 -4.59325042 -1.57137514 0 0 Z " fill="#EBEAEA" transform="translate(15,4)"/>
<path d="M0 0 C6.66666667 0 13.33333333 0 20 0 C20 2.31 20 4.62 20 7 C19.01 7 18.02 7 17 7 C16.67 5.68 16.34 4.36 16 3 C15.67 3.99 15.34 4.98 15 6 C14.34 6 13.68 6 13 6 C13 5.34 13 4.68 13 4 C12.34 4 11.68 4 11 4 C11 4.66 11 5.32 11 6 C10.34 6 9.68 6 9 6 C8.67 4.68 8.34 3.36 8 2 C7.01 2 6.02 2 5 2 C5 3.65 5 5.3 5 7 C4.01 7 3.02 7 2 7 C2 5.35 2 3.7 2 2 C1.34 2 0.68 2 0 2 C0 1.34 0 0.68 0 0 Z " fill="#C0C0C0" transform="translate(22,7)"/>
<path d="M0 0 C2.64 0 5.28 0 8 0 C8 0.66 8 1.32 8 2 C7.01 2 6.02 2 5 2 C5 3.65 5 5.3 5 7 C4.01 7 3.02 7 2 7 C2 5.35 2 3.7 2 2 C1.34 2 0.68 2 0 2 C0 1.34 0 0.68 0 0 Z " fill="#898989" transform="translate(22,7)"/>
<path d="M0 0 C1.32 0 2.64 0 4 0 C4.33 0.99 4.66 1.98 5 3 C5.66 3.33 6.32 3.66 7 4 C6.01 5.485 6.01 5.485 5 7 C4.34 7 3.68 7 3 7 C0.70351351 4.4385343 0 3.52032428 0 0 Z " fill="#FE9154" transform="translate(9,7)"/>
<path d="M0 0 C0.66 0 1.32 0 2 0 C2.309375 0.78375 2.61875 1.5675 2.9375 2.375 C3.92875038 4.92330128 3.92875038 4.92330128 5 7 C4.01 7.33 3.02 7.66 2 8 C0.4375 6.25 0.4375 6.25 -1 4 C-0.6875 1.75 -0.6875 1.75 0 0 Z " fill="#8AC0DA" transform="translate(7,6)"/>
<path d="M0 0 C1.32 0 2.64 0 4 0 C4 2.31 4 4.62 4 7 C3.01 7 2.02 7 1 7 C0.67 4.69 0.34 2.38 0 0 Z " fill="#848484" transform="translate(38,7)"/>
</svg>
