<?xml version="1.0" encoding="UTF-8"?>
<svg xmlns="http://www.w3.org/2000/svg" xmlns:xlink="http://www.w3.org/1999/xlink" width="18px" height="7px" viewBox="0 0 18 7" version="1.1">
<defs>
<radialGradient id="radial0" gradientUnits="userSpaceOnUse" cx="0.22357" cy="0.08811" fx="0.22357" fy="0.08811" r="1.13202" gradientTransform="matrix(2.066406,0,0,2.186373,2.746094,2.446367)">
<stop offset="0" style="stop-color:rgb(100%,80%,0%);stop-opacity:1;"/>
<stop offset="0.09157" style="stop-color:rgb(100%,78.431373%,0%);stop-opacity:1;"/>
<stop offset="0.1739" style="stop-color:rgb(100%,74.117647%,0%);stop-opacity:1;"/>
<stop offset="0.2528" style="stop-color:rgb(100%,67.058824%,0%);stop-opacity:1;"/>
<stop offset="0.3295" style="stop-color:rgb(100%,56.862745%,0%);stop-opacity:1;"/>
<stop offset="0.4046" style="stop-color:rgb(100%,43.921569%,0%);stop-opacity:1;"/>
<stop offset="0.4786" style="stop-color:rgb(100%,27.843137%,0%);stop-opacity:1;"/>
<stop offset="0.5503" style="stop-color:rgb(100%,9.411765%,0%);stop-opacity:1;"/>
<stop offset="0.5822" style="stop-color:rgb(100%,0%,0%);stop-opacity:1;"/>
<stop offset="1" style="stop-color:rgb(100%,0%,0%);stop-opacity:1;"/>
</radialGradient>
<radialGradient id="radial1" gradientUnits="userSpaceOnUse" cx="0.02552" cy="0.14432" fx="0.02552" fy="0.14432" r="1.39457" gradientTransform="matrix(1.519531,0,0,1.625761,1.726562,2.543383)">
<stop offset="0" style="stop-color:rgb(0%,70.588235%,90.196078%);stop-opacity:1;"/>
<stop offset="0.201" style="stop-color:rgb(0%,69.019608%,89.019608%);stop-opacity:1;"/>
<stop offset="0.3898" style="stop-color:rgb(0.392157%,64.705882%,85.882353%);stop-opacity:1;"/>
<stop offset="0.5737" style="stop-color:rgb(0.784314%,57.254902%,80.392157%);stop-opacity:1;"/>
<stop offset="0.7546" style="stop-color:rgb(1.176471%,46.666667%,72.941176%);stop-opacity:1;"/>
<stop offset="0.9316" style="stop-color:rgb(1.568627%,33.333333%,63.137255%);stop-opacity:1;"/>
<stop offset="1" style="stop-color:rgb(1.960784%,27.45098%,58.823529%);stop-opacity:1;"/>
</radialGradient>
</defs>
<g id="surface1">
<path style=" stroke:none;fill-rule:nonzero;fill:rgb(0%,0%,0%);fill-opacity:1;" d="M 17.753906 7 L 0.25 7 C 0.109375 7 0 6.886719 0 6.742188 L 0 0.257812 C 0 0.113281 0.109375 0 0.25 0 L 17.75 0 C 17.890625 0 18 0.113281 18 0.257812 L 18 6.742188 C 18.003906 6.886719 17.890625 7 17.753906 7 Z M 17.753906 7 "/>
<path style=" stroke:none;fill-rule:nonzero;fill:rgb(100%,100%,100%);fill-opacity:1;" d="M 5.648438 4.753906 C 5.648438 4.820312 5.601562 4.90625 5.542969 4.9375 L 3.515625 6.128906 C 3.460938 6.164062 3.363281 6.164062 3.308594 6.128906 L 1.28125 4.9375 C 1.222656 4.902344 1.175781 4.820312 1.175781 4.753906 L 1.175781 2.367188 C 1.175781 2.300781 1.222656 2.214844 1.28125 2.183594 L 3.308594 0.992188 C 3.363281 0.957031 3.460938 0.957031 3.515625 0.992188 L 5.542969 2.183594 C 5.601562 2.21875 5.648438 2.300781 5.648438 2.367188 Z M 5.648438 4.753906 "/>
<path style=" stroke:none;fill-rule:nonzero;fill:rgb(100%,100%,100%);fill-opacity:1;" d="M 16.804688 2.496094 L 14.984375 2.496094 L 14.984375 2.929688 L 15.632812 2.929688 L 15.632812 4.800781 L 16.148438 4.800781 L 16.148438 2.929688 L 16.804688 2.929688 Z M 16.804688 2.496094 "/>
<path style=" stroke:none;fill-rule:nonzero;fill:rgb(100%,100%,100%);fill-opacity:1;" d="M 8.535156 2.496094 L 6.710938 2.496094 L 6.710938 2.929688 L 7.367188 2.929688 L 7.367188 4.800781 L 7.882812 4.800781 L 7.882812 2.929688 L 8.535156 2.929688 Z M 8.535156 2.496094 "/>
<path style=" stroke:none;fill-rule:nonzero;fill:rgb(100%,100%,100%);fill-opacity:1;" d="M 13.804688 2.421875 C 13.230469 2.421875 12.914062 2.792969 12.914062 3.320312 L 12.914062 4.800781 L 13.421875 4.800781 L 13.421875 3.308594 C 13.421875 3.078125 13.558594 2.898438 13.808594 2.898438 C 14.058594 2.898438 14.195312 3.109375 14.195312 3.308594 L 14.195312 4.800781 L 14.707031 4.800781 L 14.707031 3.320312 C 14.707031 2.792969 14.375 2.421875 13.804688 2.421875 Z M 13.804688 2.421875 "/>
<path style=" stroke:none;fill-rule:nonzero;fill:rgb(100%,100%,100%);fill-opacity:1;" d="M 11.878906 2.496094 L 11.878906 4.800781 L 12.390625 4.800781 L 12.390625 2.496094 Z M 11.878906 2.496094 "/>
<path style=" stroke:none;fill-rule:nonzero;fill:rgb(100%,100%,100%);fill-opacity:1;" d="M 10.152344 3.410156 L 10.171875 3.511719 L 10.648438 4.800781 L 10.855469 4.800781 L 11.507812 2.496094 L 11.007812 2.496094 L 10.691406 3.707031 L 10.675781 3.835938 L 10.652344 3.707031 L 10.234375 2.496094 L 10.070312 2.496094 L 9.65625 3.707031 L 9.628906 3.835938 L 9.613281 3.707031 L 9.300781 2.496094 L 8.800781 2.496094 L 9.449219 4.800781 L 9.660156 4.800781 L 10.136719 3.511719 Z M 10.152344 3.410156 "/>
<path style=" stroke:none;fill-rule:nonzero;fill:url(#radial0);" d="M 4.351562 3.515625 L 3.832031 4.277344 L 3.566406 3.867188 L 3.875 3.410156 C 3.929688 3.328125 4.054688 3.105469 3.910156 2.796875 C 3.796875 2.550781 3.546875 2.429688 3.328125 2.429688 C 3.109375 2.429688 2.871094 2.539062 2.746094 2.796875 C 2.601562 3.089844 2.726562 3.324219 2.78125 3.402344 C 2.78125 3.402344 2.953125 3.652344 3.09375 3.863281 L 3.328125 4.195312 L 3.675781 4.726562 C 3.679688 4.730469 3.738281 4.8125 3.832031 4.8125 C 3.925781 4.8125 3.984375 4.730469 3.992188 4.71875 L 4.8125 3.515625 Z M 3.328125 3.535156 C 3.328125 3.535156 3.191406 3.328125 3.105469 3.183594 C 3.007812 3.03125 3.117188 2.800781 3.328125 2.800781 C 3.542969 2.800781 3.648438 3.03125 3.554688 3.183594 C 3.464844 3.328125 3.328125 3.535156 3.328125 3.535156 Z M 3.328125 3.535156 "/>
<path style=" stroke:none;fill-rule:nonzero;fill:url(#radial1);" d="M 2.824219 4.253906 L 2.308594 3.539062 C 2.308594 3.539062 2.171875 3.328125 2.085938 3.1875 C 1.988281 3.03125 2.097656 2.804688 2.308594 2.804688 C 2.339844 2.804688 2.363281 2.808594 2.386719 2.8125 L 2.566406 2.484375 C 2.480469 2.449219 2.394531 2.433594 2.308594 2.433594 C 2.09375 2.433594 1.851562 2.542969 1.726562 2.800781 C 1.585938 3.09375 1.710938 3.328125 1.761719 3.402344 L 2.660156 4.726562 C 2.664062 4.738281 2.722656 4.820312 2.816406 4.820312 C 2.914062 4.820312 2.96875 4.742188 2.976562 4.730469 L 3.246094 4.320312 L 3.015625 3.980469 Z M 2.824219 4.253906 "/>
</g>
</svg>
